name analog
datacolumns 19
datarows 46
range 0.0 0.0225
endheader
time	ground_force_vx	ground_force_vy	ground_force_vz	ground_force_px	ground_force_py	ground_force_pz	l_ground_force_vx	l_ground_force_vy	l_ground_force_vz	l_ground_force_px	l_ground_force_py	l_ground_force_pz	ground_torque_x	ground_torque_y	ground_torque_z	l_ground_torque_x	l_ground_torque_y	l_ground_torque_z
0.0	-0.0	-0.0	-0.0	2.4518043994903564	22.439319610595703	-249.82037353515625	0.8763046264648438	-23.22860336303711	-253.78890991210935	-0.0	-0.0	-0.0	-0.0	-0.0	-0.0	71773.2265625	-12175.8896484375	-112.78988647460938
0.0005	-0.0	-0.0	-0.0	2.910051822662353	22.36279296875	-249.26022338867188	1.1647090911865234	-23.371999740600582	-255.05325317382807	-0.0	-0.0	-0.0	-0.0	-0.0	-0.0	71765.7265625	-12152.673828125	-138.42689514160156
0.001	-0.0	-0.0	-0.0	2.6083545684814453	23.042312622070312	-249.34503173828125	0.865354061126709	-23.49356842041016	-252.8713836669922	-0.0	-0.0	-0.0	-0.0	-0.0	-0.0	71630.2734375	-12126.041015625	-53.48511505126953
0.0015	-0.0	-0.0	-0.0	2.7185349464416504	22.426841735839844	-249.64698791503903	0.9877519607543944	-23.250123977661133	-252.87969970703125	-0.0	-0.0	-0.0	-0.0	-0.0	-0.0	71254.4921875	-12083.14453125	-127.84959411621094
0.002	-0.0	-0.0	-0.0	2.53204083442688	22.66002082824707	-248.2550506591797	1.1440404653549194	-23.10678482055664	-252.00314331054688	-0.0	-0.0	-0.0	-0.0	-0.0	-0.0	71400.984375	-12249.369140625	-13.22951889038086
0.0025	-0.0	-0.0	-0.0	2.4086837768554688	22.55623435974121	-250.0513916015625	1.0770148038864136	-23.11912727355957	-253.05130004882807	-0.0	-0.0	-0.0	-0.0	-0.0	-0.0	71304.515625	-12020.234375	-119.58743286132812
0.003	-0.0	-0.0	-0.0	2.635113477706909	23.016225814819336	-249.0734100341797	1.2630585432052612	-23.28327178955078	-251.1399383544922	-0.0	-0.0	-0.0	-0.0	-0.0	-0.0	71409.671875	-12118.5439453125	-116.6136474609375
0.0035	-0.0	-0.0	-0.0	2.601102590560913	22.653106689453125	-248.96649169921875	0.9967324137687684	-23.19485282897949	-251.63609313964844	-0.0	-0.0	-0.0	-0.0	-0.0	-0.0	71439.71875	-12088.623046875	-71.50406646728516
0.004	-0.0	-0.0	-0.0	2.3682236671447754	22.590415954589844	-250.814208984375	0.8871078491210938	-23.249252319335938	-251.76780700683597	-0.0	-0.0	-0.0	-0.0	-0.0	-0.0	70990.5703125	-11884.0771484375	-98.69569396972656
0.0045000000000000005	-0.0	-0.0	-0.0	2.224642753601074	22.67365074157715	-248.99185180664065	0.9964194893836976	-23.20809364318848	-250.66603088378903	-0.0	-0.0	-0.0	-0.0	-0.0	-0.0	71231.703125	-11976.37109375	-183.1704559326172
0.005	-0.0	-0.0	-0.0	2.0916662216186523	22.63395118713379	-250.62057495117188	0.7163927555084229	-23.031625747680664	-251.9254913330078	-0.0	-0.0	-0.0	-0.0	-0.0	-0.0	71131.2265625	-11964.8349609375	-254.06997680664065
0.0055	-0.0	-0.0	-0.0	2.2153160572052	22.807270050048828	-251.30755615234372	0.6551880240440369	-23.01156616210937	-251.468994140625	-0.0	-0.0	-0.0	-0.0	-0.0	-0.0	71175.765625	-11937.3798828125	-171.92288208007812
0.006	-0.0	-0.0	-0.0	1.8930014371871948	22.549991607666016	-249.83604431152344	0.4577677845954895	-23.15443229675293	-251.6032867431641	-0.0	-0.0	-0.0	-0.0	-0.0	-0.0	70777.2890625	-11781.7705078125	-318.4213562011719
0.006500000000000001	-0.0	-0.0	-0.0	2.606510162353516	22.460861206054688	-251.87864685058597	0.3946827352046966	-22.90956115722656	-250.36312866210935	-0.0	-0.0	-0.0	-0.0	-0.0	-0.0	70843.7109375	-11826.828125	-300.3583068847656
0.007	-0.0	-0.0	-0.0	2.1952900886535645	22.62342834472656	-250.6955718994141	0.8328620791435242	-22.909629821777344	-250.2060546875	-0.0	-0.0	-0.0	-0.0	-0.0	-0.0	70814.0546875	-11721.9560546875	-333.2353210449219
0.0075	-0.0	-0.0	-0.0	2.1157140731811523	22.836456298828125	-251.0861968994141	0.4239461123943329	-23.08635902404785	-249.4890594482422	-0.0	-0.0	-0.0	-0.0	-0.0	-0.0	70826.9375	-11767.46484375	-237.87774658203125
0.008	-0.0	-0.0	-0.0	2.449117422103882	23.122535705566406	-250.6185760498047	0.5821453928947449	-22.94014358520508	-250.84368896484372	-0.0	-0.0	-0.0	-0.0	-0.0	-0.0	70842.2734375	-11687.595703125	-318.7327880859375
0.0085	-0.0	-0.0	-0.0	2.230262756347656	22.533536911010746	-251.5474395751953	0.833114504814148	-23.05577850341797	-250.96414184570312	-0.0	-0.0	-0.0	-0.0	-0.0	-0.0	70714.015625	-11570.166015625	-178.08441162109375
0.009000000000000001	-0.0	-0.0	-0.0	1.8884096145629885	23.210981369018555	-251.67742919921875	0.7793210744857788	-23.28226089477539	-250.5669403076172	-0.0	-0.0	-0.0	-0.0	-0.0	-0.0	70795.3515625	-11471.7236328125	-218.27149963378903
0.0095	-0.0	-0.0	-0.0	2.318039894104004	23.156938552856445	-250.1915283203125	0.6020386219024658	-22.891197204589844	-249.50608825683597	-0.0	-0.0	-0.0	-0.0	-0.0	-0.0	70681.140625	-11444.314453125	-255.3631591796875
0.01	-0.0	-0.0	-0.0	2.318467617034912	23.066545486450195	-251.24742126464844	0.957053244113922	-22.754722595214844	-250.40548706054688	-0.0	-0.0	-0.0	-0.0	-0.0	-0.0	70714.359375	-11530.2265625	-265.8004150390625
0.0105	-0.0	-0.0	-0.0	2.247763156890869	23.102258682250977	-252.9483642578125	0.8148647546768188	-22.840410232543945	-249.29425048828125	-0.0	-0.0	-0.0	-0.0	-0.0	-0.0	70785.96875	-11642.41015625	-206.6532745361328
0.011	-0.0	-0.0	-0.0	2.640894889831543	22.977510452270508	-252.03024291992188	0.6912335753440857	-22.71527671813965	-250.76348876953125	-0.0	-0.0	-0.0	-0.0	-0.0	-0.0	70686.3984375	-11427.1201171875	-219.09678649902344
0.0115	-0.0	-0.0	-0.0	2.6226253509521484	23.191648483276367	-252.09934997558597	0.8349628448486328	-22.92992401123047	-250.6242218017578	-0.0	-0.0	-0.0	-0.0	-0.0	-0.0	70619.5625	-11467.33203125	-390.8629150390625
0.012	-0.0	-0.0	-0.0	2.497894287109375	23.423057556152344	-251.46682739257807	1.0292192697525024	-22.928482055664062	-249.01287841796875	-0.0	-0.0	-0.0	-0.0	-0.0	-0.0	70604.65625	-11316.6142578125	-224.83865356445312
0.0125	-0.0	-0.0	-0.0	2.552250862121582	23.0130558013916	-252.66574096679688	1.1352888345718384	-22.57460594177246	-250.3417053222656	-0.0	-0.0	-0.0	-0.0	-0.0	-0.0	70374.5546875	-11484.5390625	-230.23333740234372
0.013000000000000001	-0.0	-0.0	-0.0	3.120896816253662	22.748430252075195	-253.4407501220703	0.7806185483932495	-23.157981872558597	-249.01507568359372	-0.0	-0.0	-0.0	-0.0	-0.0	-0.0	70498.4296875	-11330.2578125	-278.248291015625
0.0135	-0.0	-0.0	-0.0	2.9781744480133057	22.623842239379883	-252.80908203125	0.8162933588027954	-22.75187110900879	-250.1324157714844	-0.0	-0.0	-0.0	-0.0	-0.0	-0.0	70371.21875	-11200.0439453125	-349.2841491699219
0.014	-0.0	-0.0	-0.0	2.7147703170776367	22.65833282470703	-253.71714782714844	0.460999459028244	-22.911531448364254	-248.7332763671875	-0.0	-0.0	-0.0	-0.0	-0.0	-0.0	70418.765625	-11115.205078125	-391.1241760253906
0.0145	-0.0	-0.0	-0.0	3.0888774394989014	23.19063377380371	-252.24761962890625	0.267303854227066	-23.123083114624023	-248.8045196533203	-0.0	-0.0	-0.0	-0.0	-0.0	-0.0	70325.1796875	-11253.5126953125	-349.70770263671875
0.015	-0.0	-0.0	-0.0	2.768617868423462	23.52733612060547	-254.02659606933597	0.0529226064682006	-23.23011589050293	-249.1533966064453	-0.0	-0.0	-0.0	-0.0	-0.0	-0.0	70160.078125	-11032.451171875	-421.159423828125
0.0155	-0.0	-0.0	-0.0	3.138780355453491	23.292259216308597	-253.7781219482422	0.3697859942913055	-22.98249626159668	-248.44683837890625	-0.0	-0.0	-0.0	-0.0	-0.0	-0.0	70224.796875	-10816.8740234375	-374.21099853515625
0.016	-0.0	-0.0	-0.0	2.554635763168335	23.173904418945312	-253.58319091796875	0.1222456842660904	-23.12358856201172	-247.61448669433597	-0.0	-0.0	-0.0	-0.0	-0.0	-0.0	70166.125	-10890.314453125	-433.111572265625
0.0165	-0.0	-0.0	-0.0	2.3882203102111816	23.409135818481445	-254.162109375	0.1413803398609161	-22.822877883911133	-247.0684509277344	-0.0	-0.0	-0.0	-0.0	-0.0	-0.0	70083.1875	-10820.3642578125	-486.8126220703125
0.017	-0.0	-0.0	-0.0	2.545666456222534	23.24712562561035	-253.9994201660156	-0.0	-23.032377243041992	-248.25942993164065	-0.0	-0.0	-0.0	-0.0	-0.0	-0.0	69860.9609375	-10700.908203125	-516.7157592773438
0.0175	-0.0	-0.0	-0.0	2.581959724426269	23.48346519470215	-255.2866058349609	0.1774215698242187	-22.71846389770508	-247.13511657714844	-0.0	-0.0	-0.0	-0.0	-0.0	-0.0	70023.8359375	-10559.9013671875	-426.3977966308594
0.018000000000000002	-0.0	-0.0	-0.0	2.4086837768554688	23.35216522216797	-255.4503173828125	-0.0887107849121093	-22.963638305664062	-248.5800628662109	-0.0	-0.0	-0.0	-0.0	-0.0	-0.0	70392.4921875	-10716.8505859375	-510.1846008300781
0.0185	-0.0	-0.0	-0.0	2.6394176483154297	23.29990005493164	-254.61871337890625	0.2297525405883789	-22.78699493408203	-247.69168090820312	-0.0	-0.0	-0.0	-0.0	-0.0	-0.0	70055.09375	-10717.625	-509.91314697265625
0.019	-0.0	-0.0	-0.0	2.6457643508911133	23.441295623779297	-254.67779541015625	0.06807342171669	-22.501483917236328	-247.8544006347656	-0.0	-0.0	-0.0	-0.0	-0.0	-0.0	69907.421875	-10715.880859375	-579.8584594726562
0.0195	-0.0	-0.0	-0.0	2.78751802444458	22.988733291625977	-254.8168792724609	-0.0677748322486877	-22.656984329223636	-247.95909118652344	-0.0	-0.0	-0.0	-0.0	-0.0	-0.0	70149.078125	-10630.7265625	-520.5333862304688
0.02	-0.0	-0.0	-0.0	2.668959856033325	23.627094268798828	-254.08346557617188	0.3027682602405548	-23.00975227355957	-247.26010131835935	-0.0	-0.0	-0.0	-0.0	-0.0	-0.0	70028.5234375	-10569.7490234375	-504.755126953125
0.0205	-0.0	-0.0	-0.0	2.691075325012207	23.716384887695312	-254.23110961914065	0.2233210802078247	-22.875316619873047	-246.29635620117188	-0.0	-0.0	-0.0	-0.0	-0.0	-0.0	69503.765625	-10464.296875	-502.7823486328125
0.021	-0.0	-0.0	-0.0	2.994140386581421	23.410449981689453	-255.1436309814453	0.3699691295623779	-22.845197677612305	-246.35623168945312	-0.0	-0.0	-0.0	-0.0	-0.0	-0.0	69898.25	-10392.2578125	-492.46722412109375
0.021500000000000002	-0.0	-0.0	-0.0	2.543771505355835	23.35216522216797	-254.99591064453125	0.2142835408449173	-22.941858291625977	-246.2969665527344	-0.0	-0.0	-0.0	-0.0	-0.0	-0.0	70035.5859375	-10246.2470703125	-485.31097412109375
0.022	-0.0	-0.0	-0.0	2.681588649749756	23.35216522216797	-253.10250854492188	0.2439692914485931	-22.98570442199707	-246.58827209472656	-0.0	-0.0	-0.0	-0.0	-0.0	-0.0	69554.0703125	-10394.876953125	-458.03656005859375
0.0225	-0.0	-0.0	-0.0	2.8312478065490723	23.1317081451416	-255.05165100097656	0.1257548183202743	-22.345386505126957	-245.9178466796875	-0.0	-0.0	-0.0	-0.0	-0.0	-0.0	69633.796875	-10251.3603515625	-472.7134704589844
